<svg version="1.2" baseProfile="tiny" viewBox="0 0 32 32" xmlns:xlink="http://www.w3.org/1999/xlink" xmlns="http://www.w3.org/2000/svg">
<path style="fill:#ffffff;" d="M16,0.25C7.315,0.25,0.25,7.315,0.25,16C0.25,24.685,7.315,31.75,16,31.75C24.685,31.75,31.75,24.685,31.75,16C31.75,7.315,24.685,0.25,16,0.25ZM16,30.25C8.143,30.25,1.75,23.857,1.75,16C1.75,8.143,8.143,1.75,16,1.75C23.857,1.75,30.25,8.143,30.25,16C30.25,23.857,23.857,30.25,16,30.25Z M8.79102,11.233H5.33401V20.766H8.79102V11.233Z M13.271,11.233H9.814V20.766H13.271V11.233Z M17.916,11.233H14.459V20.766H17.916V11.233Z M22.396,11.233H18.939V20.766H22.396V11.233Z M26.853,11.233H23.396V20.766H26.853V11.233Z"/>
</svg>