<svg version="1.2" baseProfile="tiny" viewBox="0 0 18.000 14.001" xmlns:xlink="http://www.w3.org/1999/xlink" xmlns="http://www.w3.org/2000/svg">
<path style="fill:#ffffff;" d="M0.805,14.001c-0.21,0-0.385-0.047-0.56-0.204l0.001-0.002c-0.164-0.153-0.246-0.339-0.246-0.601H0   V0.821c0-0.217,0.04-0.386,0.193-0.558l0,0C0.357,0.076,0.547,0,0.823,0v0.003h16.356V0c0.273,0,0.466,0.076,0.628,0.264l0,0   C17.96,0.435,18,0.604,18,0.821v12.373h-0.001c0,0.265-0.083,0.455-0.247,0.604l0,0c-0.173,0.158-0.348,0.203-0.556,0.203H0.805   L0.805,14.001z M1.308,1.296v11.405h15.385V1.296H1.308L1.308,1.296z M1.919,10.587v1.255h1.59v-1.255H1.919L1.919,10.587z    M4.964,10.587v1.255h1.591v-1.255H4.964L4.964,10.587z M8.007,10.587v1.255h1.59v-1.255H8.007L8.007,10.587z M11.052,10.587v1.255   h1.59v-1.255H11.052L11.052,10.587z M14.096,10.587v1.255h1.589v-1.255H14.096L14.096,10.587z M1.919,2.32v1.254h13.895V2.32H1.919z   "/>
</svg>