<svg version="1.2" baseProfile="tiny" viewBox="0 0 18.000 18.000" xmlns:xlink="http://www.w3.org/1999/xlink" xmlns="http://www.w3.org/2000/svg">
<path style="fill:#ffffff;" d="M9.761,6.778l1.041,3.033H7.768L8.81,6.778   C8.87,6.603,8.928,6.427,8.985,6.25c0.058-0.179,0.107-0.339,0.15-0.483c0.042-0.145,0.076-0.265,0.101-0.359   c0.025-0.095,0.04-0.15,0.044-0.166C9.286,5.252,9.303,5.305,9.33,5.4c0.028,0.094,0.063,0.216,0.105,0.363s0.092,0.309,0.15,0.487   C9.642,6.427,9.701,6.603,9.761,6.778z M18,1.176v15.645C18,17.472,17.473,18,16.821,18H1.179C0.528,18,0,17.472,0,16.821V1.176   C0,0.527,0.528,0,1.179,0h15.642C17.473,0,18,0.527,18,1.176z M14.42,14.171L10.585,3.617H7.978l-3.85,10.554h2.209l0.937-2.696   h4.022l0.937,2.696H14.42z"/>
</svg>