<svg version="1.2" baseProfile="tiny" viewBox="0 0 32 32" xmlns:xlink="http://www.w3.org/1999/xlink" xmlns="http://www.w3.org/2000/svg">
<path style="fill:#ffffff;" d="M23.43,0H9.74399C9.27999,0,8.90399,0.376,8.90399,0.84V31.16C8.90399,31.624,9.27999,32,9.74399,32H23.43C23.894,32,24.27,31.624,24.27,31.16V0.84C24.27,0.376,23.894,0,23.43,0ZM22.59,30.32H10.583V1.68H22.59V30.32Z M13.322,8.159H19.935C20.399,8.159,20.775,7.783,20.775,7.319V4.161C20.775,3.697,20.399,3.321,19.935,3.321H13.322C12.858,3.321,12.482,3.697,12.482,4.161V7.319C12.482,7.783,12.858,8.159,13.322,8.159ZM14.162,5.001H19.096V6.48H14.162V5.001Z M13.242,12.009H20.014C20.478,12.009,20.854,11.633,20.854,11.169C20.854,10.705,20.478,10.329,20.014,10.329H13.242C12.778,10.329,12.402,10.705,12.402,11.169C12.403,11.633,12.779,12.009,13.242,12.009Z M13.242,16.21H20.014C20.478,16.21,20.854,15.834,20.854,15.37C20.854,14.906,20.478,14.53,20.014,14.53H13.242C12.778,14.53,12.402,14.906,12.402,15.37C12.403,15.834,12.779,16.21,13.242,16.21Z M20.166,21.255C20.6896,21.255,21.114,20.8306,21.114,20.307C21.114,19.7834,20.6896,19.359,20.166,19.359C19.6425,19.359,19.218,19.7834,19.218,20.307C19.218,20.8306,19.6425,21.255,20.166,21.255Z"/>
</svg>