<svg version="1.2" baseProfile="tiny" viewBox="0 0 16 16" xmlns:xlink="http://www.w3.org/1999/xlink" xmlns="http://www.w3.org/2000/svg">
<path style="fill:#ffffff;" d="M13.06 3.189C12.862 2.991 12.542 2.991 12.344 3.189L8.06999 7.464L3.85599 3.25C3.65799 3.052 3.33699 3.052 3.13999 3.25C2.94199 3.448 2.94199 3.769 3.13999 3.966L7.35399 8.18L3.14999 12.383C2.95199 12.581 2.95199 12.901 3.14999 13.099C3.24899 13.198 3.37899 13.247 3.50799 13.247C3.63799 13.247 3.76699 13.198 3.86599 13.099L8.06999 8.896L12.283 13.108C12.382 13.207 12.512 13.256 12.641 13.256C12.771 13.256 12.9 13.207 12.999 13.108C13.197 12.91 13.197 12.589 12.999 12.392L8.78599 8.18L13.06 3.906C13.258 3.708 13.258 3.387 13.06 3.189Z"/>
</svg>