<svg version="1.2" baseProfile="tiny" viewBox="0 0 18.000 13.206" xmlns:xlink="http://www.w3.org/1999/xlink" xmlns="http://www.w3.org/2000/svg">
<path style="fill:#ffffff;" d="M0.91,0h0.3v12.591h-0.3V0z M1.51,12.591h0.301V0H1.51V12.591z M3.309,12.591h0.301V0H3.309V12.591z    M4.209,11.393h0.3V0h-0.3V11.393z M7.506,11.393h0.301V0H7.506V11.393z M8.106,11.393h0.3V0h-0.3V11.393z M6.606,11.393h0.3V0h-0.3   V11.393z M2.41,12.591h0.599V0H2.41V12.591z M14.401,12.591h0.301V0h-0.301V12.591z M15.002,12.591h0.3V0h-0.3V12.591z M16.801,0   v12.591h0.3V0H16.801z M15.901,12.591h0.6V0h-0.6V12.591z M4.809,11.393h0.6V0h-0.6V11.393z M8.706,0v11.393h0.3h0.3V0h-0.3H8.706z    M5.708,11.393h0.3V0h-0.3V11.393z M12.304,11.393h0.3V0h-0.3V11.393z M12.903,11.393h0.3V0h-0.3V11.393z M11.404,11.393h0.3V0h-0.3   V11.393z M9.605,11.393h0.6V0h-0.6V11.393z M13.503,11.393h0.599V0h-0.599V11.393z M10.504,11.393h0.3V0h-0.3V11.393z M4.937,11.748   c-0.287,0-0.493,0.258-0.493,0.733c0.004,0.467,0.193,0.725,0.469,0.725c0.311,0,0.49-0.265,0.49-0.744   C5.402,12.012,5.231,11.748,4.937,11.748z M4.923,11.895c0.2,0,0.287,0.228,0.287,0.575c0,0.36-0.094,0.588-0.287,0.588   c-0.174,0-0.286-0.208-0.286-0.575C4.637,12.099,4.758,11.895,4.923,11.895z M6.049,11.748c-0.286,0-0.493,0.258-0.493,0.733   c0.005,0.467,0.193,0.725,0.47,0.725c0.31,0,0.49-0.265,0.49-0.744C6.516,12.012,6.344,11.748,6.049,11.748z M6.036,11.895   c0.199,0,0.286,0.228,0.286,0.575c0,0.36-0.093,0.588-0.286,0.588c-0.174,0-0.287-0.208-0.287-0.575   C5.749,12.099,5.87,11.895,6.036,11.895z M7.162,11.748c-0.287,0-0.493,0.258-0.493,0.733c0.004,0.467,0.193,0.725,0.469,0.725   c0.311,0,0.491-0.265,0.491-0.744C7.629,12.012,7.457,11.748,7.162,11.748z M7.148,11.895c0.2,0,0.287,0.228,0.287,0.575   c0,0.36-0.094,0.588-0.287,0.588c-0.174,0-0.286-0.208-0.286-0.575C6.862,12.099,6.983,11.895,7.148,11.895z M8.274,11.748   c-0.286,0-0.492,0.258-0.492,0.733c0.004,0.467,0.192,0.725,0.469,0.725c0.31,0,0.49-0.265,0.49-0.744   C8.741,12.012,8.57,11.748,8.274,11.748z M8.262,11.895c0.199,0,0.287,0.228,0.287,0.575c0,0.36-0.094,0.588-0.287,0.588   c-0.174,0-0.287-0.208-0.287-0.575C7.975,12.099,8.097,11.895,8.262,11.895z M9.848,11.748c-0.286,0-0.493,0.258-0.493,0.733   c0.004,0.467,0.193,0.725,0.469,0.725c0.311,0,0.491-0.265,0.491-0.744C10.314,12.012,10.143,11.748,9.848,11.748z M9.834,11.895   c0.2,0,0.287,0.228,0.287,0.575c0,0.36-0.094,0.588-0.287,0.588c-0.173,0-0.286-0.208-0.286-0.575   C9.548,12.099,9.67,11.895,9.834,11.895z M10.961,11.748c-0.287,0-0.493,0.258-0.493,0.733c0.004,0.467,0.193,0.725,0.469,0.725   c0.311,0,0.491-0.265,0.491-0.744C11.428,12.012,11.256,11.748,10.961,11.748z M10.947,11.895c0.199,0,0.286,0.228,0.286,0.575   c0,0.36-0.093,0.588-0.286,0.588c-0.173,0-0.286-0.208-0.286-0.575C10.661,12.099,10.782,11.895,10.947,11.895z M12.073,11.748   c-0.286,0-0.492,0.258-0.492,0.733c0.004,0.467,0.192,0.725,0.469,0.725c0.31,0,0.49-0.265,0.49-0.744   C12.54,12.012,12.368,11.748,12.073,11.748z M12.061,11.895c0.199,0,0.286,0.228,0.286,0.575c0,0.36-0.093,0.588-0.286,0.588   c-0.174,0-0.287-0.208-0.287-0.575C11.773,12.099,11.896,11.895,12.061,11.895z M13.187,11.748c-0.287,0-0.493,0.258-0.493,0.733   c0.005,0.467,0.193,0.725,0.469,0.725c0.311,0,0.491-0.265,0.491-0.744C13.653,12.012,13.481,11.748,13.187,11.748z M13.174,11.895   c0.199,0,0.286,0.228,0.286,0.575c0,0.36-0.093,0.588-0.286,0.588c-0.174,0-0.287-0.208-0.287-0.575   C12.887,12.099,13.008,11.895,13.174,11.895z M0.32,12.063C0.134,12.063,0,12.231,0,12.54c0.003,0.304,0.125,0.472,0.305,0.472   c0.202,0,0.318-0.173,0.318-0.484C0.623,12.235,0.512,12.063,0.32,12.063z M0.312,12.159c0.13,0,0.187,0.147,0.187,0.374   c0,0.234-0.061,0.383-0.187,0.383c-0.112,0-0.187-0.136-0.187-0.375C0.125,12.292,0.204,12.159,0.312,12.159z M17.696,12.063   c-0.187,0-0.32,0.168-0.32,0.477c0.003,0.304,0.126,0.472,0.305,0.472c0.202,0,0.319-0.173,0.319-0.484   C18,12.235,17.888,12.063,17.696,12.063z M17.688,12.159c0.13,0,0.186,0.147,0.186,0.374c0,0.234-0.061,0.383-0.186,0.383   c-0.113,0-0.187-0.136-0.187-0.375C17.502,12.292,17.58,12.159,17.688,12.159z"/>
</svg>