<svg version="1.2" baseProfile="tiny" viewBox="0 0 18.000 15.566" xmlns:xlink="http://www.w3.org/1999/xlink" xmlns="http://www.w3.org/2000/svg">
<path style="fill:#ffffff;" d="M18,4.534L13.508,0v2.147H8.97c0,0,2.262,0-1.767,0c-0.12,0-0.245,0-0.377,0   c-0.1,0-0.198,0.001-0.295,0.004C6.34,2.157,6.155,2.167,5.975,2.183C5.784,2.199,5.6,2.221,5.421,2.248   C5.136,2.29,4.865,2.346,4.608,2.414C4.5,2.442,4.395,2.473,4.291,2.505C4.138,2.553,3.99,2.606,3.848,2.663   C3.694,2.723,3.547,2.789,3.406,2.858C3.345,2.889,3.283,2.92,3.223,2.953C3.119,3.008,3.018,3.067,2.921,3.127   C2.855,3.167,2.792,3.208,2.729,3.251c-0.124,0.083-0.241,0.17-0.354,0.26C2.293,3.578,2.212,3.646,2.135,3.716   c-0.098,0.087-0.191,0.178-0.28,0.27C1.736,4.108,1.627,4.233,1.523,4.361c-0.07,0.087-0.138,0.176-0.202,0.266   c-0.129,0.179-0.245,0.362-0.35,0.546c-0.045,0.08-0.088,0.159-0.129,0.239C0.803,5.49,0.765,5.568,0.728,5.646   c-0.153,0.33-0.274,0.658-0.37,0.974c-0.025,0.082-0.049,0.164-0.07,0.244C0.057,7.718,0.01,8.445,0.002,8.78   c-0.004,0.127-0.001,0.197-0.001,0.197v0.404v6.185h4.602c0,0,0-4.445,0-6.589c0-0.292,0.042-0.545,0.113-0.766   c0.032-0.1,0.07-0.193,0.114-0.28C4.907,7.778,5,7.645,5.104,7.528C5.209,7.41,5.325,7.309,5.446,7.224   c0.145-0.103,0.297-0.183,0.444-0.246c0.142-0.06,0.278-0.104,0.403-0.137c0.307-0.08,0.532-0.088,0.532-0.088h6.672l0.01,2.075   L18,4.534z"/>
</svg>