<svg version="1.2" baseProfile="tiny" viewBox="0 0 13.500 18.000" xmlns:xlink="http://www.w3.org/1999/xlink" xmlns="http://www.w3.org/2000/svg">
<path style="fill:#ffffff;" d="M3.048,13.372c-0.247,0-0.593-0.142-0.768-0.314l-1.962-1.935C0.144,10.954,0,10.612,0,10.368V7.632   C0,7.39,0.144,7.048,0.318,6.878L2.28,4.942c0.175-0.171,0.521-0.313,0.768-0.313h2.775c0.248,0,0.593,0.142,0.767,0.313   l1.962,1.937C8.728,7.048,8.873,7.39,8.873,7.632v2.735c0,0.245-0.145,0.586-0.319,0.755l-1.962,1.935   c-0.174,0.173-0.52,0.314-0.767,0.314H3.048z M13.415,10.138l-1.474-1.721V3.252c0-0.213-0.177-0.386-0.394-0.386H5.518V0H4.731   v3.252c0,0.214,0.176,0.388,0.394,0.388h6.029V8.38L9.68,10.103c-0.129,0.15-0.11,0.375,0.043,0.501   c0.151,0.125,0.381,0.107,0.51-0.042l0.921-1.078v4.746H5.125c-0.217,0-0.394,0.176-0.394,0.388V18h0.787v-2.993h6.029   c0.217,0,0.394-0.175,0.394-0.389V9.521l0.922,1.077c0.071,0.084,0.174,0.127,0.275,0.127c0.083,0,0.165-0.028,0.234-0.085   C13.525,10.514,13.544,10.29,13.415,10.138z"/>
</svg>