<svg version="1.2" baseProfile="tiny" viewBox="0 0 16.875 18.000" xmlns:xlink="http://www.w3.org/1999/xlink" xmlns="http://www.w3.org/2000/svg">
<path style="fill:#ffffff;" d="M7.351,7.384C6.872,6.781,6.205,6.479,5.362,6.479c-0.843,0-1.498,0.301-1.977,0.895   c-0.573,0.719-0.854,1.903-0.854,3.547c0,1.674,0.26,2.838,0.78,3.494c0.521,0.655,1.197,0.978,2.05,0.978   c0.843,0,1.51-0.302,1.978-0.896c0.572-0.716,0.863-1.912,0.863-3.556C8.203,9.277,7.912,8.102,7.351,7.384z M6.278,13.115   c-0.094,0.332-0.208,0.562-0.375,0.696c-0.155,0.126-0.332,0.188-0.541,0.188c-0.197,0-0.384-0.062-0.541-0.188   c-0.156-0.124-0.281-0.385-0.385-0.759c-0.104-0.386-0.156-1.092-0.156-2.111c0-1.029,0.063-1.757,0.177-2.184   C4.54,8.423,4.665,8.186,4.821,8.061c0.157-0.135,0.344-0.198,0.541-0.198c0.209,0,0.386,0.063,0.541,0.198   C6.06,8.186,6.195,8.445,6.289,8.831c0.104,0.384,0.155,1.081,0.155,2.11C6.444,11.961,6.393,12.689,6.278,13.115z M13.605,6.479   v8.768h-1.676V8.934c-0.615,0.572-1.332,0.999-2.164,1.268V8.685c0.437-0.136,0.914-0.406,1.426-0.811   c0.51-0.396,0.864-0.864,1.051-1.395H13.605z M1.192,0C0.537,0,0,0.536,0,1.191V16.81C0,17.464,0.537,18,1.192,18h14.49   c0.657,0,1.193-0.536,1.193-1.19V1.191C16.875,0.536,16.339,0,15.682,0H1.192z M15.682,16.81H1.192V1.191h14.49V16.81z M15,1.93   v2.195H1.931V1.93H15z"/>
</svg>