<svg width="32" height="32" viewBox="0 0 32 32" fill="none" xmlns="http://www.w3.org/2000/svg">
<g clip-path="url(#clip0_323_7531)">
<path d="M15.674 18.715C15.359 18.607 15.007 18.714 14.806 18.981L6.68998 29.737C6.08998 30.531 4.95598 30.69 4.16198 30.091L3.70698 29.747C3.32398 29.458 3.07698 29.035 3.00998 28.556C2.94298 28.077 3.06498 27.602 3.35398 27.219L11.424 16.524C11.63 16.251 11.632 15.875 11.429 15.599C9.12998 12.481 9.15498 8.14299 11.49 5.04899C13.195 2.78899 15.854 1.54599 18.564 1.54599C19.498 1.54599 20.439 1.69399 21.347 1.99899L16.373 8.59099C16.249 8.75498 16.196 8.96099 16.224 9.16399C16.253 9.36699 16.36 9.55099 16.524 9.67399L19.897 12.219C20.239 12.477 20.724 12.409 20.98 12.068L25.917 5.52599C27.551 8.00499 27.787 11.092 26.651 13.777C27.215 13.8 27.73 13.926 28.194 14.145C29.555 10.694 28.988 6.71399 26.516 3.74099C26.365 3.55899 26.14 3.45799 25.903 3.46199C25.667 3.46799 25.446 3.58099 25.304 3.76899L20.211 10.518L18.073 8.90499L23.191 2.12199C23.332 1.93599 23.381 1.69499 23.324 1.46899C23.268 1.24199 23.111 1.05299 22.9 0.954986C18.499 -1.09201 13.181 0.237986 10.255 4.11699C7.62898 7.59799 7.48898 12.418 9.85098 16.039L2.11798 26.287C1.57998 26.999 1.35198 27.881 1.47698 28.77C1.60098 29.659 2.06198 30.444 2.77498 30.982L3.22998 31.326C3.83298 31.78 4.54098 32 5.24498 32C6.26198 32 7.26698 31.541 7.92498 30.669L15.27 20.935C15.385 20.036 16.011 19.3 16.85 19.025C16.456 18.947 16.062 18.848 15.674 18.715Z" fill="#6A6A6A"/>
<path d="M29.73 20.402H28.78L28.782 17.478C28.783 16.81 28.51 16.194 28.031 15.79C27.883 15.664 27.717 15.57 27.546 15.489C27.229 15.34 26.88 15.259 26.505 15.261C26.402 15.264 26.161 15.265 25.847 15.265C25.07 15.265 23.798 15.259 22.706 15.253C20.607 15.244 20.607 15.244 20.511 15.263C19.556 15.449 18.902 15.972 18.618 16.78C18.537 17.015 18.496 17.271 18.495 17.562L18.485 19.192L18.477 20.402H17.572C17.358 20.402 17.167 20.489 17.02 20.622C16.853 20.773 16.744 20.987 16.744 21.229V31.17C16.744 31.626 17.115 31.997 17.571 31.997H29.73C30.186 31.997 30.557 31.626 30.557 31.17V21.229C30.557 20.773 30.186 20.402 29.73 20.402ZM20.138 19.042L20.147 17.572C20.148 17.441 20.165 17.366 20.178 17.327C20.218 17.213 20.292 16.999 20.719 16.903C20.903 16.902 21.774 16.905 22.695 16.909H22.815C23.345 16.912 23.91 16.914 24.441 16.916C25.439 16.92 26.309 16.921 26.547 16.914C26.555 16.914 26.558 16.917 26.566 16.917C26.757 16.924 26.886 16.987 26.961 17.051C27.067 17.141 27.128 17.296 27.128 17.476L27.126 20.401H21.164H20.13L20.138 19.042ZM28.902 30.344H18.399V22.056H28.904L28.902 30.344Z" fill="#6A6A6A"/>
<path d="M24.579 24.392H22.722V28.24H24.579V24.392Z" fill="#6A6A6A"/>
</g>
<defs>
<clipPath id="clip0_323_7531">
<rect width="32" height="32" fill="white"/>
</clipPath>
</defs>
</svg>
