<svg width="32" height="32" viewBox="0 0 32 32" fill="none" xmlns="http://www.w3.org/2000/svg">
<path d="M27.039 10.832H24.633L24.636 4.84103C24.637 3.83002 24.228 2.90202 23.514 2.29802C22.872 1.75402 22.067 1.48202 21.197 1.49802C20.551 1.51402 17.073 1.49802 14.279 1.48502C10.539 1.46802 10.539 1.46802 10.426 1.49002C8.92201 1.78202 7.93901 2.55902 7.50401 3.80002C7.38102 4.15102 7.32001 4.54203 7.31701 4.99803L7.28201 10.832H4.96101C4.50801 10.832 4.14001 11.2 4.14001 11.653V29.706C4.14001 30.159 4.50701 30.527 4.96101 30.527H27.039C27.492 30.527 27.86 30.159 27.86 29.706V11.653C27.86 11.2 27.492 10.832 27.039 10.832ZM8.95801 5.00802C8.96001 4.73702 8.99101 4.52002 9.05201 4.34402C9.20901 3.89602 9.53601 3.35402 10.672 3.11602C11.006 3.11302 12.595 3.12002 14.27 3.12802C17.075 3.14002 20.565 3.15602 21.235 3.14002C21.816 3.11902 22.222 3.35602 22.453 3.55102C22.798 3.84302 22.995 4.31302 22.995 4.84103L22.992 10.833H8.92302L8.95801 5.00802ZM26.218 28.885H5.78201V12.473H26.219L26.218 28.885Z" fill="#6A6A6A"/>
<path d="M17.006 18.078H14.995V23.703H17.006V18.078Z" fill="#6A6A6A"/>
</svg>
