<svg width="32" height="32" viewBox="0 0 32 32" fill="none" xmlns="http://www.w3.org/2000/svg">
<path d="M12.534 18.995H10.571V24.487H12.534V18.995Z" fill="#6A6A6A"/>
<path d="M30.905 1.90398C30.278 1.24698 29.492 0.918977 28.643 0.937977C28.012 0.956977 24.617 0.937977 21.889 0.921977C18.238 0.901977 18.238 0.901977 18.127 0.927977C16.658 1.28098 15.699 2.21898 15.274 3.71698C15.154 4.14098 15.094 4.61298 15.091 5.16298L15.061 11.397H0.749C0.336 11.397 0 11.745 0 12.173V30.316C0 30.745 0.336 31.092 0.749 31.092H22.356C22.77 31.092 23.105 30.744 23.105 30.316V12.173C23.105 11.744 22.769 11.397 22.356 11.397H16.667L16.694 5.38098C16.696 5.02398 16.726 4.73898 16.786 4.50698C16.939 3.91798 17.258 3.20498 18.367 2.89098C18.693 2.88698 20.245 2.89598 21.88 2.90698C24.619 2.92298 28.026 2.94398 28.68 2.92298C29.247 2.89498 29.644 3.20698 29.869 3.46398C30.206 3.84798 30.398 4.46598 30.398 5.16098V8.40798H32V4.97498C32.001 3.75398 31.602 2.63398 30.905 1.90398ZM21.607 29.594H1.499V13.038H21.607V29.594Z" fill="#6A6A6A"/>
</svg>
