<svg width="32" height="32" viewBox="0 0 32 32" fill="none" xmlns="http://www.w3.org/2000/svg">
<path d="M19.841 13.017C19.782 12.889 19.657 12.808 19.511 12.803L17.056 12.774L21.271 8.87498C21.343 8.80898 21.383 8.71498 21.383 8.61898C21.383 8.52298 21.342 8.42998 21.27 8.36298L20.768 7.89798C20.625 7.76498 20.402 7.76398 20.26 7.89798L16.033 11.808L15.887 9.54098C15.882 9.39898 15.79 9.27398 15.651 9.22198C15.522 9.17498 15.37 9.20098 15.269 9.29498L14.634 9.87198C14.559 9.94198 14.518 10.04 14.522 10.143L14.719 13.705C14.723 13.798 14.764 13.884 14.831 13.944C14.899 14.008 14.99 14.044 15.087 14.045L18.849 14.143C18.851 14.143 18.854 14.143 18.856 14.143C18.952 14.143 19.046 14.106 19.118 14.039L19.762 13.411C19.869 13.309 19.901 13.151 19.841 13.017Z" fill="#6A6A6A"/>
<path d="M9.33601 13.834H13.123L13.392 12.575H9.33601C8.44801 12.575 7.72601 13.25 7.72601 14.08V20.038C7.72601 20.867 8.44901 21.542 9.33601 21.542H15.775C16.663 21.542 17.385 20.867 17.385 20.038V15.827L16.057 15.997V20.038C16.057 20.174 15.931 20.284 15.775 20.284H9.33601C9.18001 20.284 9.05301 20.174 9.05301 20.038V14.08C9.05301 13.944 9.18001 13.834 9.33601 13.834Z" fill="#6A6A6A"/>
<path d="M25.928 24.186H24.428V27.089H25.928V24.186Z" fill="#6A6A6A"/>
<path d="M2.422 14.671C2.422 7.98099 7.865 2.53699 14.555 2.53699C21.245 2.53699 26.688 7.97999 26.688 14.671C26.688 14.785 26.674 14.895 26.671 15.008H27.46C27.709 15.008 27.944 15.034 28.167 15.077C28.171 14.941 28.188 14.808 28.188 14.671C28.188 7.15299 22.072 1.03699 14.555 1.03699C7.038 1.03699 0.921997 7.15299 0.921997 14.671C0.921997 22.189 7.038 28.304 14.555 28.304C15.768 28.304 16.938 28.13 18.057 27.831V26.284C16.947 26.619 15.772 26.804 14.555 26.804C7.865 26.804 2.422 21.361 2.422 14.671Z" fill="#6A6A6A"/>
<path d="M30.033 20.688H29.33V18.226C29.306 17.648 28.93 16.842 28.038 16.592C27.913 16.557 27.768 16.544 27.624 16.531V16.507H27.46H26.534H22.87H22.708V16.523C21.515 16.608 21.029 17.567 21.001 18.257V20.688H20.308C19.894 20.688 19.558 21.024 19.558 21.438V25.711V27.34V29.456C19.558 29.87 19.894 30.206 20.308 30.206H30.033C30.447 30.206 30.783 29.87 30.783 29.456V21.438C30.783 21.024 30.447 20.688 30.033 20.688ZM22.87 18.008H26.211H27.461C27.544 18.008 27.659 18.015 27.74 18.083C27.784 18.12 27.821 18.17 27.831 18.258V20.689H26.771H25.078H22.5L22.499 18.306C22.527 18.008 22.741 18.008 22.87 18.008ZM29.283 28.706H21.058V26.65V24.897V22.188H24.061H25.918H29.283V28.706Z" fill="#6A6A6A"/>
</svg>
