<svg version="1.2" baseProfile="tiny" viewBox="0 0 32 32" xmlns:xlink="http://www.w3.org/1999/xlink" xmlns="http://www.w3.org/2000/svg">
<path style="fill:#ffffff;" d="M20.774,8.98903C20.774,8.89303,20.733,8.80003,20.661,8.73303L20.159,8.26803C20.016,8.13503,19.793,8.13403,19.651,8.26803L15.424,12.178L15.278,9.91103C15.273,9.76903,15.181,9.64403,15.042,9.59203C14.913,9.54503,14.761,9.57103,14.66,9.66503L14.025,10.242C13.95,10.312,13.909,10.41,13.913,10.513L14.11,14.075C14.114,14.168,14.155,14.254,14.222,14.314C14.29,14.378,14.381,14.414,14.478,14.415L18.24,14.513C18.242,14.513,18.245,14.513,18.247,14.513C18.343,14.513,18.437,14.476,18.509,14.409L19.153,13.781C19.26,13.679,19.292,13.522,19.232,13.387C19.173,13.259,19.048,13.178,18.902,13.173L16.447,13.144L20.662,9.24503C20.734,9.17903,20.774,9.08503,20.774,8.98903Z M15.447,20.409C15.447,20.545,15.321,20.655,15.165,20.655H8.72603C8.57003,20.655,8.44303,20.545,8.44303,20.409V14.451C8.44303,14.315,8.57003,14.205,8.72603,14.205H12.513L12.782,12.946H8.72603C7.83803,12.946,7.11603,13.621,7.11603,14.451V20.409C7.11603,21.238,7.83903,21.913,8.72603,21.913H15.165C16.053,21.913,16.775,21.238,16.775,20.409V16.198L15.447,16.368V20.409Z M1.81201,15.042C1.81201,8.35202,7.25501,2.90802,13.945,2.90802C20.635,2.90802,26.078,8.35102,26.078,15.042C26.078,15.211,26.06,15.376,26.053,15.543C26.191,15.527,26.323,15.501,26.47,15.501H27.555C27.56,15.347,27.578,15.197,27.578,15.042C27.578,7.52402,21.462,1.40802,13.945,1.40802C6.42801,1.40802,0.312012,7.52402,0.312012,15.042C0.312012,22.56,6.42801,28.675,13.945,28.675C14.806,28.675,15.645,28.586,16.463,28.432V26.908C15.65,27.08,14.809,27.174,13.945,27.174C7.25501,27.175,1.81201,21.732,1.81201,15.042Z M24.261,24.218H23.998H22.761V25.423V27.121H24.261V27.106H24.274V24.227H24.261V24.218Z M30.485,20.584H31.985V18.804C31.97,18.404,31.797,17.902,31.431,17.527C31.134,17.223,30.711,17.001,30.121,17.001H29.931H27.422H26.471H26.309V17.018C26.159,17.029,26.02,17.053,25.892,17.091C25.004,17.356,24.631,18.203,24.607,18.832V19.326V20.826H23.107H18.713C18.299,20.826,17.963,21.162,17.963,21.576V26.477V28.069V29.555C17.963,29.969,18.299,30.305,18.713,30.305H28.25C28.664,30.305,29,29.969,29,29.555V21.576C29,21.162,28.664,20.826,28.25,20.826H27.607H26.273H26.107V19.326V18.873C26.135,18.501,26.362,18.501,26.472,18.501H27.118H29.932H30.122C30.231,18.501,30.458,18.501,30.486,18.832V20.001V20.584H30.485ZM27.5,22.326V23.755V28.805H19.463V27.498V25.835V22.327H23.107H23.626H25.45H27.5V22.326Z"/>
</svg>