<svg version="1.2" baseProfile="tiny" viewBox="0 0 32 32" xmlns:xlink="http://www.w3.org/1999/xlink" xmlns="http://www.w3.org/2000/svg">
<path style="fill:#ffffff;" d="M21.024,25.065H19.292V28.561H21.024V25.065Z M30.105,16.636C29.718,16.231,29.23,16.035,28.691,16.037C28.503,16.042,27.821,16.041,27.012,16.038C26.471,16.036,25.876,16.033,25.328,16.03C25.24,16.03,25.176,16.029,25.096,16.029C23.471,16.021,23.452,16.021,23.357,16.043C22.494,16.251,21.907,16.823,21.657,17.701C21.588,17.947,21.553,18.216,21.553,18.523V18.588L21.545,20.231L21.54,21.267H14.82H14.759C14.758,21.267,14.756,21.267,14.755,21.267C14.559,21.267,14.374,21.344,14.234,21.484C14.088,21.629,14.008,21.823,14.008,22.03V22.343V31.101C14.008,31.522,14.344,31.864,14.757,31.864H25.561C25.974,31.864,26.311,31.522,26.311,31.101V22.03C26.311,21.609,25.974,21.267,25.561,21.267H23.093L23.101,19.582L23.105,18.635C23.106,18.489,23.117,18.373,23.139,18.29C23.203,18.041,23.308,17.864,23.623,17.764C23.869,17.768,24.574,17.767,25.32,17.772L25.595,17.774H25.606C26.923,17.782,28.425,17.789,28.741,17.78C28.844,17.752,28.948,17.823,29.035,17.923C29.141,18.044,29.207,18.275,29.207,18.525V20.523H30.758V18.431C30.756,17.724,30.519,17.069,30.105,16.636ZM24.81,22.837V30.365H15.505V22.837H24.81Z M3.96197,30.09L3.50697,29.746C3.12397,29.457,2.87697,29.034,2.80997,28.555C2.74297,28.076,2.86497,27.601,3.15397,27.218L11.224,16.523C11.43,16.25,11.432,15.874,11.229,15.598C8.92997,12.481,8.95497,8.14302,11.29,5.04902C12.995,2.78902,15.654,1.54602,18.364,1.54602C19.298,1.54602,20.239,1.69402,21.147,1.99902L16.173,8.59102C16.049,8.75502,15.996,8.96102,16.024,9.16402C16.053,9.36702,16.16,9.55102,16.324,9.67402L19.697,12.219C20.039,12.477,20.524,12.409,20.78,12.068L25.717,5.52602C27.506,8.23902,27.647,11.689,26.113,14.534C26.779,14.537,27.429,14.54,27.827,14.541C29.395,11.002,28.883,6.82902,26.317,3.74202C26.166,3.56002,25.941,3.45902,25.704,3.46302C25.468,3.46902,25.247,3.58202,25.105,3.77002L20.012,10.519L17.874,8.90602L22.992,2.12302C23.133,1.93702,23.182,1.69602,23.125,1.47002C23.069,1.24302,22.912,1.05402,22.701,0.956024C18.3,-1.09098,12.982,0.239023,10.056,4.11802C7.42997,7.59902,7.28997,12.419,9.65197,16.04L1.91797,26.287C1.37997,26.999,1.15197,27.881,1.27697,28.77C1.40097,29.659,1.86197,30.444,2.57497,30.982L3.02997,31.326C3.63297,31.78,4.34097,32,5.04497,32C6.06197,32,7.06697,31.541,7.72497,30.669L12.507,24.332V22.03C12.507,21.926,12.523,21.824,12.537,21.723L6.48997,29.737C5.88997,30.531,4.75597,30.69,3.96197,30.09Z"/>
</svg>