<svg version="1.2" baseProfile="tiny" viewBox="0 0 16 16" xmlns:xlink="http://www.w3.org/1999/xlink" xmlns="http://www.w3.org/2000/svg">
<path style="fill:#ffffff;" d="M0.833,11.377C1.03,9.14799,2.818,7.41699,4.95,7.41699C5.375,7.41699,5.78,7.49899,6.165,7.62899C6.292,7.49999,6.435,7.38499,6.609,7.30699L6.665,7.27499L6.772,7.24199L6.923,7.16799L6.952,7.16699L6.953,7.07799C6.34,6.78399,5.669,6.60199,4.95,6.60199C2.22,6.60199,0,8.92699,0,11.784C0,12.008,0.183,12.191,0.408,12.191H5.754V11.377H0.833Z M7.511,8.38195C7.419,8.30495,7.317,8.24295,7.22,8.17395H7.197C7.175,8.17395,7.162,8.18695,7.144,8.19195C7.116,8.20095,7.087,8.20595,7.061,8.22095C6.879,8.28795,6.77,8.42995,6.77,8.60195V10.743V11.377H6.893V12.191H6.77V15.45C6.77,15.686,6.961,15.877,7.197,15.877H15.573C15.809,15.877,16,15.686,16,15.45V8.60195C16,8.36595,15.809,8.17395,15.573,8.17395H14.775L14.776,6.01795C14.777,5.59895,14.607,5.21495,14.309,4.96395C14.053,4.74695,13.732,4.63295,13.38,4.63295C13.371,4.63295,13.362,4.63295,13.352,4.63295C13.129,4.63895,11.972,4.63395,10.953,4.62995L9.805,4.62395C9.3,4.62195,9.291,4.62395,9.248,4.63195C8.635,4.75195,8.232,5.07195,8.052,5.58395C8.002,5.72795,7.977,5.88895,7.976,6.07595L7.964,7.76395L7.961,8.17395H7.906C7.834,8.19895,7.767,8.22595,7.722,8.24995C7.644,8.28495,7.579,8.33595,7.511,8.38195ZM8.828,6.08095C8.829,5.98995,8.84,5.91995,8.859,5.86695C8.911,5.71795,9.015,5.55395,9.365,5.47795C9.416,5.47795,9.546,5.47695,9.717,5.47795L10.952,5.48395C11.977,5.48895,13.137,5.49295,13.375,5.48695C13.544,5.47295,13.684,5.55295,13.758,5.61495C13.862,5.70395,13.923,5.84995,13.923,6.01695L13.922,8.17395H8.817L8.828,6.08095ZM8.631,9.02795H15.146V15.024H7.624V11.672V10.743V9.02795H7.627H8.631Z M11.883,10.923H10.888V13.288H11.883V10.923Z M7.511,8.38195C7.579,8.33595,7.644,8.28495,7.722,8.24995C7.767,8.22595,7.835,8.19895,7.907,8.17395H7.22C7.317,8.24295,7.419,8.30495,7.511,8.38195Z M6.893,11.377H6.77V11.672V12.191H6.893V11.377Z M4.85,5.80897C6.418,5.80897,7.693,4.53397,7.693,2.96597C7.693,1.39797,6.418,0.120972,4.85,0.120972C3.283,0.120972,2.008,1.39697,2.008,2.96597C2.009,4.53397,3.283,5.80897,4.85,5.80897ZM4.85,0.937972C5.968,0.937972,6.878,1.84797,6.878,2.96697C6.878,4.08497,5.968,4.99397,4.85,4.99397C3.733,4.99397,2.824,4.08497,2.824,2.96697C2.824,1.84797,3.733,0.937972,4.85,0.937972Z"/>
</svg>