<svg version="1.2" baseProfile="tiny" viewBox="0 0 16 16" xmlns:xlink="http://www.w3.org/1999/xlink" xmlns="http://www.w3.org/2000/svg">
<path style="fill:#ffffff;" d="M0.737,1.31102H10.804V3.31202H10.904H11.004L11.341,3.31302H11.441H11.541V0.941021C11.541,0.738021,11.376,0.572021,11.172,0.572021H0.369C0.165,0.572021,0,0.738021,0,0.941021V8.62502C0,8.82802,0.165,8.99402,0.369,8.99402H5.403V10.718H3.735C3.531,10.718,3.366,10.883,3.366,11.087C3.366,11.291,3.531,11.456,3.735,11.456H5.879V11.356V11.256V8.45702V8.35602V8.25602H0.737V1.31102Z M15.578,7.819H14.79L14.791,5.689C14.792,5.276,14.624,4.896,14.33,4.648C14.077,4.434,13.76,4.321,13.413,4.321C13.404,4.321,13.395,4.321,13.385,4.321C13.203,4.326,12.388,4.324,11.541,4.32C11.508,4.32,11.475,4.32,11.441,4.32C11.407,4.32,11.374,4.32,11.341,4.32C11.232,4.32,11.122,4.319,11.015,4.319H11.004H10.904H10.804L9.881,4.312C9.382,4.31,9.373,4.312,9.331,4.32C8.726,4.438,8.327,4.754,8.149,5.26C8.1,5.403,8.075,5.562,8.074,5.747L8.063,7.414L8.06,7.819H8.006H7.328H7.305C7.284,7.819,7.27,7.832,7.252,7.837C7.225,7.846,7.196,7.851,7.171,7.865C6.991,7.931,6.883,8.071,6.883,8.241V8.255V8.355V8.456V8.792V8.892V8.993V10.355V10.717V10.817V10.917V10.982V11.255V11.273V11.355V11.455V11.786V15.005C6.883,15.238,7.072,15.427,7.305,15.427H15.578C15.811,15.427,16,15.238,16,15.005V8.241C16,8.009,15.811,7.819,15.578,7.819ZM8.916,5.751C8.917,5.662,8.927,5.593,8.946,5.54C8.997,5.392,9.1,5.231,9.446,5.156C9.496,5.156,9.625,5.155,9.794,5.156L11.014,5.162C12.027,5.166,13.172,5.171,13.407,5.165C13.574,5.152,13.712,5.23,13.785,5.291C13.888,5.379,13.948,5.523,13.948,5.688L13.947,7.818H8.905L8.916,5.751ZM15.156,14.584H7.727V11.455V11.355V11.273V11.255V10.918V10.818V10.718V10.356V8.662H7.73H8.722H15.157V14.584H15.156Z M11.933,10.534H10.951V12.87H11.933V10.534Z"/>
</svg>