<svg width="16" height="16" viewBox="0 0 16 16" fill="none" xmlns="http://www.w3.org/2000/svg">
<path d="M8 0.0219727C3.601 0.0219727 0.0219994 3.60097 0.0219994 7.99997C0.0219994 12.399 3.601 15.978 8 15.978C12.399 15.978 15.978 12.399 15.978 7.99997C15.978 3.60097 12.399 0.0219727 8 0.0219727ZM8 15.228C4.015 15.228 0.771999 11.986 0.771999 7.99997C0.771999 4.01397 4.014 0.771973 8 0.771973C11.986 0.771973 15.228 4.01497 15.228 7.99997C15.228 11.985 11.985 15.228 8 15.228Z" fill="black"/>
<path d="M12.75 7.625H3.242C3.035 7.625 2.867 7.793 2.867 8C2.867 8.207 3.035 8.375 3.242 8.375H12.75C12.957 8.375 13.125 8.207 13.125 8C13.125 7.793 12.957 7.625 12.75 7.625Z" fill="black"/>
</svg>
